<svg xmlns="http://www.w3.org/2000/svg" x="0px" y="0px" width="100" height="100" viewBox="0,0,246.77344,256">
<g fill="#ffffff" fill-rule="nonzero" stroke="none" stroke-width="1" stroke-linecap="butt" stroke-linejoin="miter" stroke-miterlimit="10" stroke-dasharray="" stroke-dashoffset="0" font-family="none" font-weight="none" font-size="none" text-anchor="none" style="mix-blend-mode: normal"><g transform="scale(5.56522,5.56522)"><path d="M22.15625,0c-0.25977,0.00414 -0.50774,0.10921 -0.69141,0.29297l-0.01953,0.01953l-20.56641,20.56641c-1.1632,1.1632 -1.1632,3.07899 0,4.24219l20.58594,20.58594c0.39053,0.39037 1.02353,0.39037 1.41406,0l0.01953,-0.01953l20.56641,-20.56641c1.1632,-1.1632 1.1632,-3.07899 0,-4.24219l-20.58594,-20.58594c-0.19132,-0.19141 -0.45205,-0.29711 -0.72266,-0.29297zM22.23438,2.47656l19.81641,19.81641c0.3989,0.3989 0.3989,1.01516 0,1.41406l-16.11719,16.11719c0.11885,-0.58194 0.20463,-1.17224 0.23633,-1.77148c0.00186,-0.03513 0.00186,-0.07034 0,-0.10547c-0.13357,-2.52547 -1.06102,-4.93582 -2.63281,-6.89648l7.3418,-7.34375c0.39037,-0.39053 0.39037,-1.02353 0,-1.41406l-7.98047,-7.98047c-1.62315,-1.71825 -2.57915,-3.95401 -2.7168,-6.3125c0.11751,-2.01338 0.83653,-3.93454 2.05273,-5.52344zM18.41016,6.17578c-0.11885,0.58194 -0.20463,1.17223 -0.23633,1.77148c-0.00186,0.03513 -0.00186,0.07034 0,0.10547c0.13359,2.5259 1.06249,4.93564 2.63477,6.89648l-7.34375,7.34375c-0.39037,0.39053 -0.39037,1.02353 0,1.41406l8,8.00195c1.611,1.71542 2.56019,3.94223 2.69727,6.29102c-0.11751,2.01338 -0.83653,3.93454 -2.05273,5.52344l-19.81641,-19.81641c-0.3989,-0.3989 -0.3989,-1.01516 0,-1.41406zM22.17188,16.41406l6.58594,6.58594l-6.58594,6.58594l-6.58594,-6.58594z"></path></g></g>
</svg>